<svg height="512" viewBox="0 0 510 510" width="512" xmlns="http://www.w3.org/2000/svg" xmlns:xlink="http://www.w3.org/1999/xlink"><linearGradient id="a"><stop offset="0" stop-color="#ffd945"/><stop offset=".304" stop-color="#ffcd3e"/><stop offset=".856" stop-color="#ffad2b"/><stop offset="1" stop-color="#ffa325"/></linearGradient><linearGradient id="c" gradientUnits="userSpaceOnUse" x1="191.684" x2="320.303" xlink:href="#a" y1="212.382" y2="341.001"/><linearGradient id="d" gradientTransform="rotate(180 -277 812.463)" gradientUnits="userSpaceOnUse" x1="-859.876" x2="-756.528" xlink:href="#a" y1="1298.352" y2="1401.7"/><linearGradient id="b"><stop offset="0" stop-color="#8a7889"/><stop offset="1" stop-color="#6e566e"/></linearGradient><linearGradient id="e" gradientTransform="rotate(-135 -277.047 828.718)" gradientUnits="userSpaceOnUse" x1="-227.949" x2="-227.949" xlink:href="#b" y1="1380.155" y2="1684.934"/><linearGradient id="f" gradientTransform="rotate(-135 -277.047 828.718)" gradientUnits="userSpaceOnUse" x1="-227.949" x2="-227.949" xlink:href="#b" y1="1445.985" y2="1587.112"/><linearGradient id="g" gradientTransform="scale(1 -1) rotate(45 1623.317 -242.663)" gradientUnits="userSpaceOnUse" x1="666.54" x2="666.54" xlink:href="#b" y1="485.666" y2="790.445"/><linearGradient id="h" gradientTransform="scale(1 -1) rotate(45 1623.317 -242.663)" gradientUnits="userSpaceOnUse" x1="666.541" x2="666.541" xlink:href="#b" y1="551.496" y2="692.622"/><linearGradient id="i" gradientUnits="userSpaceOnUse" x1="255" x2="255" xlink:href="#b" y1="66.974" y2="371.753"/><linearGradient id="j" gradientUnits="userSpaceOnUse" x1="255" x2="255" xlink:href="#b" y1="132.804" y2="273.931"/><linearGradient id="k" gradientUnits="userSpaceOnUse" x1="353.103" x2="260.166" y1="373.801" y2="280.865"><stop offset="0" stop-color="#6e566e" stop-opacity="0"/><stop offset=".294" stop-color="#674d66" stop-opacity=".294"/><stop offset="1" stop-color="#593b56"/></linearGradient><linearGradient id="l" gradientUnits="userSpaceOnUse" x1="235.699" x2="274.907" xlink:href="#a" y1="256.397" y2="295.606"/><linearGradient id="m" gradientUnits="userSpaceOnUse" x1="264.684" x2="370.963" y1="279.364" y2="255.659"><stop offset="0" stop-color="#e87264" stop-opacity="0"/><stop offset=".652" stop-color="#f67150" stop-opacity=".652"/><stop offset="1" stop-color="#ff7044"/></linearGradient><circle cx="255" cy="275.699" fill="url(#c)" r="151.179"/><circle cx="255" cy="275.699" fill="url(#d)" r="121.475"/><path d="M34.402 394.477c3.479-3.479 5.08-8.455 4.133-13.283-4.969-25.348 2.498-52.65 22.405-72.122 31.272-30.588 82.093-29.878 112.538 1.533 30.12 31.075 29.824 80.677-.887 111.389-19.412 19.412-46.372 26.671-71.43 21.779-4.849-.947-9.848.626-13.341 4.119l-.004.004c-7.68 7.68-4.852 20.662 5.277 24.581 52.423 20.284 114.208 9.142 156.336-33.44 55.554-56.152 56.023-147.313 1.019-204.004-56.792-58.533-150.293-59.069-207.756-1.606C.548 275.573-10.391 337.1 9.863 389.315c3.908 10.077 16.897 12.804 24.539 5.162z" fill="url(#e)"/><path d="M48.352 265.483C12.285 301.55 4.211 354.984 24.074 398.858c3.687-.053 7.4-1.454 10.328-4.382 3.479-3.479 5.08-8.455 4.133-13.283-4.969-25.348 2.498-52.65 22.405-72.122 31.272-30.588 82.093-29.878 112.538 1.533 30.12 31.075 29.824 80.677-.887 111.389-19.412 19.412-46.372 26.671-71.43 21.779-4.849-.947-9.848.626-13.341 4.119l-.004.004c-2.939 2.939-4.334 6.655-4.375 10.343 59.145 26.77 135.668 2.745 163.583-72.127 8.83-23.682 8.691-49.818-.249-73.459-34.176-90.375-139.493-106.098-198.423-47.169z" fill="url(#f)"/><path d="M475.598 394.477c-3.479-3.479-5.08-8.455-4.133-13.283 4.969-25.348-2.498-52.65-22.405-72.122-31.272-30.588-82.093-29.878-112.538 1.533-30.12 31.075-29.824 80.677.887 111.389 19.412 19.412 46.372 26.671 71.43 21.779 4.849-.947 9.848.626 13.341 4.119l.004.004c7.68 7.68 4.852 20.662-5.277 24.581-52.423 20.284-114.208 9.142-156.336-33.44-55.554-56.152-56.023-147.313-1.019-204.004 56.792-58.533 150.293-59.069 207.756-1.606 42.145 42.145 53.084 103.673 32.831 155.888-3.91 10.077-16.899 12.804-24.541 5.162z" fill="url(#g)"/><path d="M461.648 265.483c36.067 36.067 44.141 89.501 24.278 133.375-3.687-.053-7.4-1.454-10.328-4.382-3.479-3.479-5.08-8.455-4.133-13.283 4.969-25.348-2.498-52.65-22.405-72.122-31.272-30.588-82.093-29.878-112.538 1.533-30.12 31.075-29.824 80.677.887 111.389 19.412 19.412 46.372 26.671 71.43 21.779 4.849-.947 9.848.626 13.341 4.119l.004.004c2.939 2.939 4.334 6.655 4.375 10.343-59.145 26.77-135.668 2.745-163.583-72.127-8.83-23.682-8.691-49.818.249-73.459 34.176-90.375 139.493-106.098 198.423-47.169z" fill="url(#h)"/><g><path d="M292.771 42.694c0 4.92 2.387 9.571 6.47 12.315 21.437 14.41 35.462 38.995 35.155 66.841-.484 43.742-36.921 79.176-80.66 78.493-43.272-.675-78.136-35.958-78.136-79.391 0-27.453 13.931-51.649 35.109-65.908 4.098-2.759 6.521-7.406 6.521-12.346v-.006c0-10.861-11.179-18.041-21.113-13.65-51.412 22.726-87.221 74.293-86.901 134.192.423 78.988 64.552 143.78 143.532 144.973 81.547 1.232 148.041-64.506 148.041-145.771 0-59.602-35.772-110.844-87.015-133.444-9.89-4.361-21.003 2.894-21.003 13.702z" fill="url(#i)"/><path d="M374.119 143.77c0-51.007-32.074-94.499-77.143-111.478-2.569 2.644-4.204 6.26-4.204 10.402 0 4.919 2.387 9.571 6.47 12.315 21.437 14.41 35.462 38.995 35.155 66.841-.484 43.742-36.921 79.176-80.66 78.493-43.272-.675-78.136-35.959-78.136-79.391 0-27.453 13.931-51.649 35.109-65.908 4.098-2.759 6.521-7.406 6.521-12.346v-.006c0-4.157-1.641-7.771-4.22-10.407-60.751 22.893-97.872 93.991-64.669 166.672 10.502 22.989 29.081 41.372 52.119 51.767 88.07 39.738 173.658-23.614 173.658-106.954z" fill="url(#j)"/></g><path d="M416.906 472.477c10.129-3.919 12.957-16.901 5.277-24.581l-.004-.004c-3.494-3.494-8.492-5.066-13.341-4.119-25.058 4.892-52.017-2.366-71.43-21.779-30.711-30.711-31.007-80.314-.887-111.389a78.849 78.849 0 019.826-8.569l-56.646-56.646c-8.448-9.664-20.857-15.777-34.701-15.777-25.452 0-46.086 20.633-46.086 46.086 0 13.844 6.113 26.253 15.777 34.701L393.59 479.298a145.36 145.36 0 0023.316-6.821z" fill="url(#k)"/><g><circle cx="255" cy="275.699" fill="url(#l)" r="46.086"/><path d="M277.026 235.209a45.882 45.882 0 015.596 22.025c0 25.452-20.633 46.086-46.086 46.086a45.88 45.88 0 01-22.025-5.596c7.814 14.334 23.015 24.06 40.49 24.06 25.452 0 46.086-20.633 46.086-46.086-.001-17.474-9.728-32.676-24.061-40.489z" fill="url(#m)"/></g></svg>