<svg xmlns="http://www.w3.org/2000/svg">
  <symbol id="vk" viewBox="0 0 112.196 112.196"><circle cx="56.098" cy="56.098" r="56.098"/><path d="M53.979 80.702h4.403s1.33-.146 2.009-.878c.625-.672.605-1.934.605-1.934s-.086-5.908 2.656-6.778c2.703-.857 6.174 5.71 9.853 8.235 2.782 1.911 4.896 1.492 4.896 1.492l9.837-.137s5.146-.317 2.706-4.363c-.2-.331-1.421-2.993-7.314-8.463-6.168-5.725-5.342-4.799 2.088-14.702 4.525-6.031 6.334-9.713 5.769-11.29-.539-1.502-3.867-1.105-3.867-1.105l-11.076.069s-.821-.112-1.43.252c-.595.357-.978 1.189-.978 1.189s-1.753 4.667-4.091 8.636c-4.932 8.375-6.904 8.817-7.71 8.297-1.875-1.212-1.407-4.869-1.407-7.467 0-8.116 1.231-11.5-2.397-12.376-1.204-.291-2.09-.483-5.169-.514-3.952-.041-7.297.012-9.191.94-1.26.617-2.232 1.992-1.64 2.071.732.098 2.39.447 3.269 1.644 1.135 1.544 1.095 5.012 1.095 5.012s.652 9.554-1.523 10.741c-1.493.814-3.541-.848-7.938-8.446-2.253-3.892-3.954-8.194-3.954-8.194s-.328-.804-.913-1.234c-.71-.521-1.702-.687-1.702-.687l-10.525.069s-1.58.044-2.16.731c-.516.611-.041 1.875-.041 1.875s8.24 19.278 17.57 28.993c8.555 8.907 18.27 8.322 18.27 8.322z" fill-rule="evenodd" clip-rule="evenodd" fill="currentcolor" /></symbol>
  <symbol id="tg" viewBox="0 0 512 512"><circle" cx="256" cy="256" r="256" fill="#47b0d3"/><path d="M34.133 256C34.133 120.352 139.641 9.364 273.066.579A259.94 259.94 0 00256 0C114.615 0 0 114.615 0 256s114.615 256 256 256c5.737 0 11.424-.208 17.067-.579C139.642 502.636 34.133 391.648 34.133 256z" fill="#3298ba"/><path d="M380.263 109.054a8.535 8.535 0 00-8.399-.679L96.777 236.433a13.472 13.472 0 00-7.766 12.501c.117 5.226 3.28 9.92 8.065 12.015l253.613 110.457c8.468 3.849 18.439-2.21 18.983-11.453l14.314-243.341a8.536 8.536 0 00-3.723-7.558z" fill="#e5e5e5"/><path fill="#ccc" d="M171.631 293.421L188.772 408l190.396-299.568z"/><path d="M371.866 108.375L96.777 236.433c-4.737 2.205-7.826 7.121-7.769 12.345.058 5.233 3.276 10.074 8.067 12.171l74.557 32.471 207.536-184.988a8.525 8.525 0 00-7.302-.057z" fill="#fff"/><path fill="#e5e5e5" d="M211.418 310.749L188.772 408l190.396-299.568z"/><path d="M380.263 109.054a8.382 8.382 0 00-1.095-.622l-167.75 202.317 139.27 60.657c8.468 3.849 18.439-2.21 18.983-11.453l14.314-243.341a8.533 8.533 0 00-3.722-7.558z" fill="#fff" /></symbol>
</svg>
